<svg width="22" height="22" viewBox="0 0 22 22" fill="none" xmlns="http://www.w3.org/2000/svg">
<g id="Objects / bookmark">
<path id="Vector" fill-rule="evenodd" clip-rule="evenodd" d="M4.40039 3.66742C4.40039 3.26241 4.72872 2.93408 5.13372 2.93408H16.8671C17.272 2.93408 17.6004 3.26241 17.6004 3.66742V19.8007C17.6004 20.0674 17.4558 20.3129 17.2226 20.4421C16.9894 20.5713 16.7044 20.5639 16.4784 20.4226L11.0004 16.9988L5.52239 20.4226C5.29633 20.5639 5.01139 20.5713 4.77823 20.4421C4.54506 20.3129 4.40039 20.0674 4.40039 19.8007V3.66742ZM5.86706 4.40075V18.4777L10.2231 15.7551C10.6987 15.4579 11.3021 15.4579 11.7777 15.7551L16.1337 18.4777V4.40075H5.86706Z" fill="#020617"/>
</g>
</svg>
