<svg width="25" height="24" viewBox="0 0 25 24" fill="none" xmlns="http://www.w3.org/2000/svg">
<mask id="mask0_2950_1921" style="mask-type:alpha" maskUnits="userSpaceOnUse" x="0" y="0" width="25" height="24">
<rect x="0.5" width="24" height="24" fill="#D9D9D9"/>
</mask>
<g mask="url(#mask0_2950_1921)">
<path d="M1.5418 18.096C1.22263 18.096 0.953297 17.9862 0.733797 17.7665C0.51413 17.547 0.404297 17.2777 0.404297 16.9585V16.4252C0.404297 15.6767 0.780964 15.0695 1.5343 14.6035C2.28763 14.1375 3.27621 13.9045 4.50005 13.9045C4.68488 13.9045 4.8603 13.9077 5.0263 13.914C5.19246 13.9203 5.3553 13.9362 5.5148 13.9617C5.26946 14.3276 5.08646 14.7118 4.9658 15.1145C4.84513 15.5173 4.7848 15.9376 4.7848 16.3752V18.096H1.5418ZM7.5418 18.096C7.22263 18.096 6.9533 17.9862 6.7338 17.7665C6.51413 17.547 6.4043 17.2777 6.4043 16.9585V16.3752C6.4043 15.8299 6.55113 15.3295 6.8448 14.874C7.13846 14.4183 7.55796 14.0198 8.1033 13.6785C8.64863 13.3372 9.29713 13.0812 10.0488 12.9105C10.8003 12.7398 11.6173 12.6545 12.4998 12.6545C13.3993 12.6545 14.2238 12.7398 14.9733 12.9105C15.723 13.0812 16.3705 13.3372 16.9158 13.6785C17.4611 14.0198 17.8775 14.4183 18.1648 14.874C18.4521 15.3295 18.5958 15.8299 18.5958 16.3752V16.9585C18.5958 17.2777 18.486 17.547 18.2663 17.7665C18.0468 17.9862 17.7775 18.096 17.4583 18.096H7.5418ZM20.2153 18.096V16.3752C20.2153 15.9206 20.1581 15.4921 20.0438 15.0897C19.9295 14.6874 19.758 14.3114 19.5293 13.9617C19.6888 13.9362 19.8486 13.9203 20.0088 13.914C20.1691 13.9077 20.3329 13.9045 20.5 13.9045C21.7287 13.9045 22.7185 14.1341 23.4693 14.5932C24.2203 15.0522 24.5958 15.6629 24.5958 16.4252V16.9585C24.5958 17.2777 24.486 17.547 24.2663 17.7665C24.0468 17.9862 23.7775 18.096 23.4583 18.096H20.2153ZM8.7983 15.9345H16.2268C16.0161 15.629 15.5526 15.3652 14.8363 15.1432C14.1198 14.9211 13.342 14.81 12.503 14.81C11.664 14.81 10.8853 14.9211 10.1668 15.1432C9.44846 15.3652 8.9923 15.629 8.7983 15.9345ZM4.50055 12.9285C3.93421 12.9285 3.4493 12.7269 3.0458 12.3237C2.64213 11.9206 2.4403 11.4359 2.4403 10.8697C2.4403 10.2864 2.64188 9.79715 3.04505 9.40199C3.44821 9.00665 3.93288 8.80899 4.49905 8.80899C5.08238 8.80899 5.57163 9.00632 5.9668 9.40099C6.36213 9.79566 6.5598 10.2847 6.5598 10.8682C6.5598 11.4346 6.36246 11.9195 5.9678 12.323C5.57313 12.7267 5.08405 12.9285 4.50055 12.9285ZM20.5005 12.9285C19.9342 12.9285 19.4493 12.7269 19.0458 12.3237C18.6421 11.9206 18.4403 11.4359 18.4403 10.8697C18.4403 10.2864 18.6419 9.79715 19.045 9.40199C19.4482 9.00665 19.9329 8.80899 20.499 8.80899C21.0824 8.80899 21.5716 9.00632 21.9668 9.40099C22.3621 9.79566 22.5598 10.2847 22.5598 10.8682C22.5598 11.4346 22.3625 11.9195 21.9678 12.323C21.5731 12.7267 21.084 12.9285 20.5005 12.9285ZM12.5 11.9105C11.6402 11.9105 10.9093 11.6096 10.3073 11.0077C9.7053 10.4057 9.4043 9.67482 9.4043 8.81499C9.4043 7.94099 9.7053 7.20657 10.3073 6.61174C10.9093 6.01674 11.6402 5.71924 12.5 5.71924C13.3739 5.71924 14.1083 6.01674 14.7033 6.61174C15.2983 7.20657 15.5958 7.94099 15.5958 8.81499C15.5958 9.67482 15.2983 10.4057 14.7033 11.0077C14.1083 11.6096 13.3739 11.9105 12.5 11.9105ZM12.503 9.75524C12.7684 9.75524 12.991 9.66432 13.1708 9.48249C13.3505 9.30082 13.4403 9.07732 13.4403 8.81199C13.4403 8.54649 13.3502 8.3239 13.17 8.14424C12.9897 7.96457 12.7664 7.87474 12.5 7.87474C12.2367 7.87474 12.0141 7.96482 11.8323 8.14499C11.6506 8.32515 11.5598 8.54849 11.5598 8.81499C11.5598 9.07832 11.6506 9.30082 11.8323 9.48249C12.0141 9.66432 12.2377 9.75524 12.503 9.75524Z" fill="#1C1B1F"/>
</g>
</svg>
