<svg width="25" height="24" viewBox="0 0 25 24" fill="none" xmlns="http://www.w3.org/2000/svg">
<mask id="mask0_2950_1915" style="mask-type:alpha" maskUnits="userSpaceOnUse" x="0" y="0" width="25" height="24">
<rect x="0.5" width="24" height="24" fill="#D9D9D9"/>
</mask>
<g mask="url(#mask0_2950_1915)">
<path d="M1.31445 17.2896C1.31445 16.6857 1.47062 16.1308 1.78295 15.6248C2.09529 15.1187 2.51029 14.7324 3.02795 14.4661C4.07329 13.9454 5.13712 13.5539 6.21945 13.2916C7.30195 13.0292 8.40137 12.8981 9.5177 12.8981C10.6415 12.8981 11.7448 13.0282 12.8275 13.2886C13.9101 13.5489 14.97 13.9394 16.0072 14.4601C16.5249 14.7259 16.94 15.1113 17.2525 15.6163C17.5648 16.1213 17.721 16.6791 17.721 17.2896V18.0298C17.721 18.6595 17.4992 19.1961 17.0557 19.6396C16.6122 20.0831 16.0756 20.3048 15.446 20.3048H3.58945C2.95962 20.3048 2.42304 20.0831 1.9797 19.6396C1.5362 19.1961 1.31445 18.6595 1.31445 18.0298V17.2896ZM21.41 20.3048H19.0455C19.2726 19.9688 19.442 19.6071 19.5535 19.2196C19.6651 18.8321 19.721 18.4355 19.721 18.0298V17.1373C19.721 16.3762 19.5168 15.6312 19.1085 14.9023C18.7001 14.1735 18.093 13.5495 17.2872 13.0303C18.1094 13.1343 18.9004 13.3121 19.6602 13.5636C20.4202 13.8152 21.1232 14.1141 21.7692 14.4601C22.3852 14.7934 22.8585 15.1868 23.1892 15.6403C23.5197 16.0937 23.685 16.5887 23.685 17.1253V18.0298C23.685 18.6595 23.4632 19.1961 23.0197 19.6396C22.5764 20.0831 22.0398 20.3048 21.41 20.3048ZM9.5177 11.8981C8.3857 11.8981 7.41912 11.4975 6.61795 10.6963C5.81662 9.89499 5.41595 8.92841 5.41595 7.79657C5.41595 6.66474 5.81662 5.69816 6.61795 4.89682C7.41912 4.09549 8.3857 3.69482 9.5177 3.69482C10.6495 3.69482 11.6161 4.09549 12.4175 4.89682C13.2186 5.69816 13.6192 6.66474 13.6192 7.79657C13.6192 8.92841 13.2186 9.89499 12.4175 10.6963C11.6161 11.4975 10.6495 11.8981 9.5177 11.8981ZM19.8107 7.79657C19.8107 8.92441 19.4091 9.88999 18.606 10.6933C17.803 11.4965 16.8376 11.8981 15.71 11.8981C15.522 11.8981 15.2883 11.8763 15.009 11.8328C14.7296 11.7892 14.4903 11.7383 14.291 11.6803C14.749 11.139 15.0998 10.5357 15.3435 9.87032C15.5871 9.20499 15.709 8.51399 15.709 7.79733C15.709 7.08083 15.5871 6.38966 15.3435 5.72383C15.0998 5.05783 14.749 4.45416 14.291 3.91283C14.5283 3.82549 14.7636 3.76732 14.997 3.73832C15.2303 3.70932 15.4667 3.69482 15.7062 3.69482C16.8349 3.69482 17.8011 4.09649 18.605 4.89982C19.4088 5.70299 19.8107 6.66857 19.8107 7.79657ZM3.58945 18.0298H15.446V17.3193C15.446 17.1398 15.4001 16.9767 15.3085 16.8298C15.2168 16.683 15.096 16.5688 14.946 16.4873C14.0698 16.0533 13.1794 15.7258 12.2747 15.5048C11.37 15.2837 10.451 15.1731 9.5177 15.1731C8.59237 15.1731 7.67329 15.2837 6.76045 15.5048C5.84779 15.7258 4.95745 16.0533 4.08945 16.4873C3.93945 16.5688 3.81862 16.683 3.72695 16.8298C3.63529 16.9767 3.58945 17.1398 3.58945 17.3193V18.0298ZM9.5167 9.71283C10.0434 9.71283 10.4946 9.52533 10.8705 9.15033C11.2461 8.77516 11.434 8.32424 11.434 7.79757C11.434 7.27074 11.2464 6.81949 10.8712 6.44382C10.4962 6.06816 10.0454 5.88032 9.5187 5.88032C8.99187 5.88032 8.54062 6.06782 8.16495 6.44282C7.78929 6.81799 7.60145 7.26891 7.60145 7.79558C7.60145 8.32224 7.78895 8.77349 8.16395 9.14932C8.53912 9.52499 8.99004 9.71283 9.5167 9.71283Z" fill="#1C1B1F"/>
</g>
</svg>
