<svg width="25" height="24" viewBox="0 0 25 24" fill="none" xmlns="http://www.w3.org/2000/svg">
<mask id="mask0_2950_1909" style="mask-type:alpha" maskUnits="userSpaceOnUse" x="0" y="0" width="25" height="24">
<rect x="0.5" width="24" height="24" fill="#D9D9D9"/>
</mask>
<g mask="url(#mask0_2950_1909)">
<path d="M7.44702 20.2033C6.87235 20.2033 6.38035 19.9987 5.97102 19.5896C5.56185 19.1802 5.35727 18.6882 5.35727 18.1136V11.1311L3.57852 12.4886C3.31719 12.6832 3.03327 12.7631 2.72677 12.7281C2.42027 12.6931 2.17177 12.545 1.98127 12.2838C1.7946 12.0265 1.72094 11.7456 1.76027 11.4411C1.7996 11.1366 1.94785 10.889 2.20502 10.6983L11.1083 3.85331C11.3156 3.69614 11.5384 3.58022 11.7765 3.50555C12.0149 3.43089 12.2563 3.39355 12.5008 3.39355C12.7453 3.39355 12.9867 3.43089 13.225 3.50555C13.4632 3.58022 13.6859 3.69614 13.8933 3.85331L16.3753 5.75706V5.33855C16.3753 4.91039 16.529 4.54639 16.8365 4.24655C17.1442 3.94672 17.5363 3.7968 18.0128 3.7968C18.4693 3.7968 18.8553 3.95597 19.1708 4.2743C19.4864 4.5928 19.6443 4.97947 19.6443 5.4343V8.27231L22.8083 10.6983C23.0529 10.889 23.1971 11.1366 23.2408 11.4411C23.2844 11.7456 23.2129 12.0265 23.0263 12.2838C22.8358 12.545 22.5873 12.6931 22.2808 12.7281C21.9741 12.7631 21.6902 12.6832 21.429 12.4886L19.6443 11.1251V18.1136C19.6443 18.6882 19.4403 19.1802 19.0323 19.5896C18.6241 19.9987 18.1335 20.2033 17.5605 20.2033H15.4708C14.8961 20.2033 14.4042 19.9987 13.995 19.5896C13.5859 19.1802 13.3813 18.6882 13.3813 18.1136V14.2273H11.6203V18.1136C11.6203 18.6882 11.4163 19.1802 11.0083 19.5896C10.6003 19.9987 10.1097 20.2033 9.53652 20.2033H7.44702ZM7.63227 17.9283H9.40502V14.0958C9.40502 13.5228 9.60969 13.0322 10.019 12.6241C10.4282 12.2161 10.9201 12.0121 11.4948 12.0121H13.5128C14.0858 12.0121 14.5763 12.2161 14.9843 12.6241C15.3924 13.0322 15.5965 13.5228 15.5965 14.0958V17.9283H17.3693V9.37881L12.5008 5.65656L7.63227 9.37881V17.9283ZM10.453 10.2701H14.5485C14.5485 9.72089 14.3445 9.26647 13.9365 8.90681C13.5287 8.54731 13.0501 8.36756 12.5008 8.36756C11.9514 8.36756 11.4729 8.54731 11.065 8.90681C10.657 9.26647 10.453 9.72089 10.453 10.2701Z" fill="#1C1B1F"/>
</g>
</svg>
