<svg width="36" height="36" viewBox="0 0 36 36" fill="none" xmlns="http://www.w3.org/2000/svg">
<g id="Abstract / info-circled">
<path id="Vector" fill-rule="evenodd" clip-rule="evenodd" d="M17.9998 2.10449C9.22133 2.10449 2.10498 9.22085 2.10498 17.9993C2.10498 26.7777 9.22133 33.8942 17.9998 33.8942C26.7782 33.8942 33.8945 26.7777 33.8945 17.9993C33.8945 9.22085 26.7782 2.10449 17.9998 2.10449ZM4.38497 17.9993C4.38497 10.4801 10.4805 4.38449 17.9998 4.38449C25.519 4.38449 31.6145 10.4801 31.6145 17.9993C31.6145 25.5184 25.519 31.6142 17.9998 31.6142C10.4805 31.6142 4.38497 25.5184 4.38497 17.9993ZM19.7998 10.7999C19.7998 11.794 18.9939 12.5999 17.9998 12.5999C17.0057 12.5999 16.1998 11.794 16.1998 10.7999C16.1998 9.8058 17.0057 8.99993 17.9998 8.99993C18.9939 8.99993 19.7998 9.8058 19.7998 10.7999ZM14.4001 14.3999H15.6001H18.0001C18.6628 14.3999 19.2001 14.9372 19.2001 15.5999V23.9999H20.4001H21.6001V26.4H20.4001H18.0001H15.6001H14.4001V23.9999H15.6001H16.8001V16.7999H15.6001H14.4001V14.3999Z" fill="#FF9100"/>
</g>
</svg>
