<svg width="22" height="22" viewBox="0 0 22 22" fill="none" xmlns="http://www.w3.org/2000/svg">
<g id="Objects / star-filled">
<path id="Vector" d="M10.5933 0.976593C10.7436 0.615224 11.2555 0.615224 11.4058 0.976593L13.8059 6.74704C13.8693 6.89939 14.0126 7.00348 14.177 7.01666L20.4068 7.5161C20.7969 7.54737 20.955 8.03423 20.6578 8.28885L15.9114 12.3546C15.7862 12.462 15.7315 12.6304 15.7697 12.7909L17.2198 18.8699C17.3106 19.2507 16.8964 19.5516 16.5625 19.3476L11.2289 16.0899C11.0881 16.0039 10.911 16.0039 10.7702 16.0899L5.43675 19.3476C5.10275 19.5516 4.6886 19.2507 4.7794 18.8699L6.2295 12.7909C6.26779 12.6304 6.21306 12.462 6.08776 12.3546L1.34139 8.28885C1.04415 8.03423 1.20235 7.54737 1.59247 7.5161L7.82217 7.01666C7.98662 7.00348 8.1299 6.89939 8.19326 6.74704L10.5933 0.976593Z" fill="#FFC02C"/>
</g>
</svg>
